<svg xmlns="http://www.w3.org/2000/svg" xmlns:xlink="http://www.w3.org/1999/xlink" width="500" zoomAndPan="magnify" viewBox="0 0 375 374.999991" height="500" preserveAspectRatio="xMidYMid meet" version="1.0"><defs><g/></defs><g fill="#281350" fill-opacity="1"><g transform="translate(8.915071, 356.215172)"><g><path d="M 11.9375 0 L 13.28125 0 C 17.386719 0 19.625 -2.238281 19.625 -6.34375 L 19.625 -45.367188 C 19.625 -49.472656 17.386719 -51.710938 13.28125 -51.710938 L 11.9375 -51.710938 C 7.835938 -51.710938 5.597656 -49.472656 5.597656 -45.367188 L 5.597656 -6.34375 C 5.597656 -2.238281 7.835938 0 11.9375 0 Z M 11.9375 0 "/></g></g></g><g fill="#281350" fill-opacity="1"><g transform="translate(44.581702, 356.215172)"><g><path d="M 21.863281 0.746094 C 35.292969 0.746094 42.234375 -4.625 42.234375 -14.921875 C 42.234375 -32.832031 17.3125 -25.070312 17.3125 -37.160156 C 17.3125 -40.742188 18.730469 -43.128906 23.058594 -43.128906 C 26.636719 -43.128906 28.726562 -42.085938 29.398438 -38.949219 C 30.292969 -34.773438 31.488281 -32.535156 35.292969 -32.535156 C 39.097656 -32.535156 41.710938 -34.621094 41.414062 -38.726562 C 40.742188 -47.53125 34.921875 -52.457031 23.28125 -52.457031 C 11.265625 -52.457031 4.402344 -48.054688 4.402344 -36.859375 C 4.402344 -18.578125 28.207031 -24.398438 28.207031 -14.027344 C 28.207031 -10.96875 26.339844 -9.476562 22.3125 -9.476562 C 19.921875 -9.476562 18.207031 -9.925781 17.085938 -10.96875 C 14.550781 -13.730469 13.878906 -15.894531 10.296875 -15.894531 L 9.625 -15.894531 C 5.820312 -15.894531 2.984375 -13.503906 4.105469 -9.402344 C 5.96875 -2.761719 11.9375 0.746094 21.863281 0.746094 Z M 21.863281 0.746094 "/></g></g></g><g fill="#281350" fill-opacity="1"><g transform="translate(100.170092, 356.215172)"><g><path d="M 25.222656 0.746094 C 38.128906 0.746094 44.695312 -5.371094 44.695312 -17.683594 C 44.695312 -23.28125 44.621094 -28.878906 44.621094 -34.472656 C 44.621094 -38.128906 44.621094 -41.710938 44.621094 -45.367188 C 44.695312 -49.472656 42.457031 -51.710938 38.351562 -51.710938 L 38.277344 -51.710938 C 34.175781 -51.710938 31.863281 -49.472656 31.9375 -45.292969 C 32.011719 -41.710938 32.011719 -38.054688 32.011719 -34.472656 C 32.011719 -29.027344 31.9375 -23.578125 31.863281 -18.132812 C 31.863281 -11.640625 30.144531 -9.328125 25.222656 -9.328125 C 20.894531 -9.328125 19.324219 -11.640625 19.25 -18.132812 C 19.175781 -23.578125 19.175781 -29.027344 19.175781 -34.472656 C 19.175781 -38.128906 19.175781 -41.710938 19.175781 -45.367188 C 19.25 -49.472656 17.011719 -51.710938 12.910156 -51.710938 L 11.566406 -51.710938 C 7.460938 -51.710938 5.296875 -49.472656 5.296875 -45.367188 C 5.296875 -43.503906 5.296875 -41.636719 5.296875 -39.769531 C 5.296875 -32.457031 5.222656 -25.070312 5.222656 -17.683594 C 5.222656 -5.371094 11.9375 0.746094 25.222656 0.746094 Z M 25.222656 0.746094 "/></g></g></g><g fill="#281350" fill-opacity="1"><g transform="translate(160.533736, 356.215172)"><g><path d="M 52.605469 -51.710938 L 44.996094 -51.710938 C 41.261719 -51.710938 38.949219 -49.992188 37.832031 -46.488281 L 32.457031 -29.773438 L 26.042969 -46.710938 C 24.773438 -50.144531 22.460938 -51.710938 18.804688 -51.710938 L 11.9375 -51.710938 C 7.835938 -51.710938 5.597656 -49.472656 5.671875 -45.367188 C 5.746094 -32.308594 5.746094 -19.402344 5.671875 -6.34375 C 5.597656 -2.238281 7.835938 0 11.789062 0 C 15.746094 0 17.90625 -2.238281 17.757812 -6.417969 C 17.460938 -14.175781 17.3125 -22.160156 17.160156 -35.742188 L 17.535156 -35.742188 L 25.371094 -11.191406 C 26.488281 -7.6875 28.207031 -5.96875 30.742188 -5.96875 C 33.203125 -5.96875 34.996094 -7.6875 36.191406 -11.117188 L 44.695312 -35.742188 L 44.996094 -35.742188 L 45.070312 -25.890625 C 45.070312 -19.324219 44.996094 -12.835938 44.917969 -6.34375 C 44.917969 -2.238281 47.160156 0 51.261719 0 L 52.605469 0 C 56.710938 0 58.949219 -2.238281 58.949219 -6.34375 C 58.949219 -12.835938 58.875 -19.324219 58.875 -25.890625 C 58.875 -32.382812 58.949219 -38.875 58.949219 -45.367188 C 58.949219 -49.472656 56.710938 -51.710938 52.605469 -51.710938 Z M 52.605469 -51.710938 "/></g></g></g><g fill="#281350" fill-opacity="1"><g transform="translate(235.521577, 356.215172)"><g><path d="M 11.9375 0 L 13.28125 0 C 17.386719 0 19.625 -2.238281 19.625 -6.34375 L 19.625 -45.367188 C 19.625 -49.472656 17.386719 -51.710938 13.28125 -51.710938 L 11.9375 -51.710938 C 7.835938 -51.710938 5.597656 -49.472656 5.597656 -45.367188 L 5.597656 -6.34375 C 5.597656 -2.238281 7.835938 0 11.9375 0 Z M 11.9375 0 "/></g></g></g><g fill="#281350" fill-opacity="1"><g transform="translate(271.188208, 356.215172)"><g><path d="M 39.546875 -51.710938 C 35.59375 -51.710938 33.578125 -49.398438 33.875 -45.144531 C 34.398438 -38.128906 34.773438 -30.890625 34.996094 -22.757812 L 34.847656 -22.757812 L 23.207031 -47.007812 C 21.640625 -50.292969 19.324219 -51.710938 15.746094 -51.710938 L 11.9375 -51.710938 C 7.835938 -51.710938 5.597656 -49.472656 5.671875 -45.367188 C 5.746094 -32.308594 5.746094 -19.402344 5.671875 -6.34375 C 5.597656 -2.238281 7.761719 0 11.640625 0 C 15.519531 0 17.535156 -2.3125 17.3125 -6.566406 C 16.714844 -15.519531 16.339844 -24.027344 16.117188 -34.621094 L 16.265625 -34.621094 L 30.667969 -4.699219 C 32.234375 -1.417969 34.546875 0 38.128906 0 L 39.25 0 C 43.351562 0 45.589844 -2.238281 45.515625 -6.34375 C 45.441406 -19.402344 45.441406 -32.308594 45.515625 -45.367188 C 45.589844 -49.472656 43.503906 -51.710938 39.546875 -51.710938 Z M 39.546875 -51.710938 "/></g></g></g><g fill="#281350" fill-opacity="1"><g transform="translate(332.820268, 356.215172)"><g><path d="M 19.550781 -9.925781 L 19.550781 -20.59375 C 22.683594 -20.519531 25.816406 -20.519531 28.800781 -20.445312 C 32.90625 -20.445312 35.144531 -22.234375 35.144531 -25.519531 C 35.144531 -28.726562 32.90625 -30.519531 28.800781 -30.519531 C 25.816406 -30.445312 22.683594 -30.445312 19.550781 -30.371094 L 19.550781 -41.785156 C 23.652344 -41.710938 27.832031 -41.710938 31.785156 -41.636719 C 35.890625 -41.636719 38.128906 -43.425781 38.128906 -46.710938 C 38.128906 -49.917969 35.890625 -51.710938 31.785156 -51.710938 L 11.9375 -51.710938 C 7.835938 -51.710938 5.597656 -49.472656 5.671875 -45.367188 C 5.671875 -38.875 5.746094 -32.382812 5.746094 -25.890625 C 5.746094 -19.402344 5.671875 -12.910156 5.671875 -6.34375 C 5.597656 -2.238281 7.835938 0 11.9375 0 L 32.535156 0 C 36.636719 0 38.875 -1.789062 38.875 -5.074219 C 38.875 -8.28125 36.636719 -10.074219 32.535156 -10.074219 C 28.355469 -10 23.953125 -10 19.550781 -9.925781 Z M 19.550781 -9.925781 "/></g></g></g></svg>