<svg xmlns="http://www.w3.org/2000/svg" xmlns:xlink="http://www.w3.org/1999/xlink" width="500" zoomAndPan="magnify" viewBox="0 0 375 374.999991" height="500" preserveAspectRatio="xMidYMid meet" version="1.0"><defs><g/><clipPath id="322a6f4ef2"><path d="M 0 154.140625 L 47.230469 154.140625 L 47.230469 220.871094 L 0 220.871094 Z M 0 154.140625 " clip-rule="nonzero"/></clipPath><clipPath id="0761aad2a5"><path d="M 49.664062 154.140625 L 82.5 154.140625 L 82.5 207.773438 L 49.664062 207.773438 Z M 49.664062 154.140625 " clip-rule="nonzero"/></clipPath><clipPath id="31c1836799"><path d="M 35.234375 207.6875 L 49.75 207.6875 L 49.75 220.871094 L 35.234375 220.871094 Z M 35.234375 207.6875 " clip-rule="nonzero"/></clipPath><clipPath id="a081b4bd31"><path d="M 33 154.128906 L 67 154.128906 L 67 208 L 33 208 Z M 33 154.128906 " clip-rule="nonzero"/></clipPath></defs><g fill="#281350" fill-opacity="1"><g transform="translate(74.504186, 219.178843)"><g><path d="M 9.65625 0 L 10.742188 0 C 14.0625 0 15.871094 -1.8125 15.871094 -5.128906 L 15.871094 -36.695312 C 15.871094 -40.015625 14.0625 -41.824219 10.742188 -41.824219 L 9.65625 -41.824219 C 6.335938 -41.824219 4.527344 -40.015625 4.527344 -36.695312 L 4.527344 -5.128906 C 4.527344 -1.8125 6.335938 0 9.65625 0 Z M 9.65625 0 "/></g></g></g><g fill="#281350" fill-opacity="1"><g transform="translate(103.353109, 219.178843)"><g><path d="M 17.683594 0.605469 C 28.546875 0.605469 34.160156 -3.742188 34.160156 -12.070312 C 34.160156 -26.554688 14 -20.277344 14 -30.054688 C 14 -32.953125 15.148438 -34.882812 18.648438 -34.882812 C 21.546875 -34.882812 23.234375 -34.039062 23.777344 -31.503906 C 24.503906 -28.125 25.46875 -26.3125 28.546875 -26.3125 C 31.625 -26.3125 33.738281 -28.003906 33.496094 -31.324219 C 32.953125 -38.445312 28.246094 -42.429688 18.828125 -42.429688 C 9.113281 -42.429688 3.5625 -38.867188 3.5625 -29.8125 C 3.5625 -15.027344 22.8125 -19.734375 22.8125 -11.347656 C 22.8125 -8.871094 21.304688 -7.664062 18.046875 -7.664062 C 16.113281 -7.664062 14.726562 -8.027344 13.820312 -8.871094 C 11.769531 -11.105469 11.226562 -12.855469 8.328125 -12.855469 L 7.785156 -12.855469 C 4.707031 -12.855469 2.414062 -10.921875 3.320312 -7.605469 C 4.828125 -2.234375 9.65625 0.605469 17.683594 0.605469 Z M 17.683594 0.605469 "/></g></g></g><g fill="#281350" fill-opacity="1"><g transform="translate(148.315873, 219.178843)"><g><path d="M 20.398438 0.605469 C 30.839844 0.605469 36.152344 -4.34375 36.152344 -14.304688 C 36.152344 -18.828125 36.089844 -23.355469 36.089844 -27.882812 C 36.089844 -30.839844 36.089844 -33.738281 36.089844 -36.695312 C 36.152344 -40.015625 34.339844 -41.824219 31.019531 -41.824219 L 30.960938 -41.824219 C 27.640625 -41.824219 25.769531 -40.015625 25.832031 -36.632812 C 25.890625 -33.738281 25.890625 -30.78125 25.890625 -27.882812 C 25.890625 -23.476562 25.832031 -19.070312 25.769531 -14.664062 C 25.769531 -9.414062 24.382812 -7.542969 20.398438 -7.542969 C 16.898438 -7.542969 15.632812 -9.414062 15.570312 -14.664062 C 15.511719 -19.070312 15.511719 -23.476562 15.511719 -27.882812 C 15.511719 -30.839844 15.511719 -33.738281 15.511719 -36.695312 C 15.570312 -40.015625 13.761719 -41.824219 10.441406 -41.824219 L 9.355469 -41.824219 C 6.035156 -41.824219 4.285156 -40.015625 4.285156 -36.695312 C 4.285156 -35.183594 4.285156 -33.675781 4.285156 -32.167969 C 4.285156 -26.253906 4.226562 -20.277344 4.226562 -14.304688 C 4.226562 -4.34375 9.65625 0.605469 20.398438 0.605469 Z M 20.398438 0.605469 "/></g></g></g><g fill="#281350" fill-opacity="1"><g transform="translate(197.141127, 219.178843)"><g><path d="M 42.546875 -41.824219 L 36.390625 -41.824219 C 33.375 -41.824219 31.503906 -40.4375 30.597656 -37.597656 L 26.253906 -24.082031 L 21.0625 -37.78125 C 20.035156 -40.558594 18.167969 -41.824219 15.207031 -41.824219 L 9.65625 -41.824219 C 6.335938 -41.824219 4.527344 -40.015625 4.585938 -36.695312 C 4.648438 -26.132812 4.648438 -15.691406 4.585938 -5.128906 C 4.527344 -1.8125 6.335938 0 9.535156 0 C 12.734375 0 14.484375 -1.8125 14.363281 -5.191406 C 14.121094 -11.46875 14 -17.925781 13.882812 -28.910156 L 14.183594 -28.910156 L 20.519531 -9.054688 C 21.425781 -6.214844 22.8125 -4.828125 24.863281 -4.828125 C 26.855469 -4.828125 28.304688 -6.214844 29.269531 -8.992188 L 36.152344 -28.910156 L 36.390625 -28.910156 L 36.453125 -20.941406 C 36.453125 -15.632812 36.390625 -10.378906 36.332031 -5.128906 C 36.332031 -1.8125 38.144531 0 41.460938 0 L 42.546875 0 C 45.867188 0 47.679688 -1.8125 47.679688 -5.128906 C 47.679688 -10.378906 47.617188 -15.632812 47.617188 -20.941406 C 47.617188 -26.191406 47.679688 -31.445312 47.679688 -36.695312 C 47.679688 -40.015625 45.867188 -41.824219 42.546875 -41.824219 Z M 42.546875 -41.824219 "/></g></g></g><g fill="#281350" fill-opacity="1"><g transform="translate(257.79529, 219.178843)"><g><path d="M 9.65625 0 L 10.742188 0 C 14.0625 0 15.871094 -1.8125 15.871094 -5.128906 L 15.871094 -36.695312 C 15.871094 -40.015625 14.0625 -41.824219 10.742188 -41.824219 L 9.65625 -41.824219 C 6.335938 -41.824219 4.527344 -40.015625 4.527344 -36.695312 L 4.527344 -5.128906 C 4.527344 -1.8125 6.335938 0 9.65625 0 Z M 9.65625 0 "/></g></g></g><g fill="#281350" fill-opacity="1"><g transform="translate(286.644218, 219.178843)"><g><path d="M 31.988281 -41.824219 C 28.789062 -41.824219 27.160156 -39.953125 27.398438 -36.511719 C 27.824219 -30.839844 28.125 -24.984375 28.304688 -18.40625 L 28.183594 -18.40625 L 18.769531 -38.023438 C 17.503906 -40.675781 15.632812 -41.824219 12.734375 -41.824219 L 9.65625 -41.824219 C 6.335938 -41.824219 4.527344 -40.015625 4.585938 -36.695312 C 4.648438 -26.132812 4.648438 -15.691406 4.585938 -5.128906 C 4.527344 -1.8125 6.277344 0 9.414062 0 C 12.554688 0 14.183594 -1.871094 14 -5.3125 C 13.519531 -12.554688 13.21875 -19.433594 13.035156 -28.003906 L 13.15625 -28.003906 L 24.804688 -3.800781 C 26.074219 -1.148438 27.941406 0 30.839844 0 L 31.746094 0 C 35.066406 0 36.875 -1.8125 36.816406 -5.128906 C 36.753906 -15.691406 36.753906 -26.132812 36.816406 -36.695312 C 36.875 -40.015625 35.183594 -41.824219 31.988281 -41.824219 Z M 31.988281 -41.824219 "/></g></g></g><g fill="#281350" fill-opacity="1"><g transform="translate(336.495457, 219.178843)"><g><path d="M 15.8125 -8.027344 L 15.8125 -16.65625 C 18.347656 -16.597656 20.882812 -16.597656 23.296875 -16.535156 C 26.617188 -16.535156 28.425781 -17.984375 28.425781 -20.640625 C 28.425781 -23.234375 26.617188 -24.683594 23.296875 -24.683594 C 20.882812 -24.625 18.347656 -24.625 15.8125 -24.5625 L 15.8125 -33.796875 C 19.132812 -33.738281 22.511719 -33.738281 25.710938 -33.675781 C 29.03125 -33.675781 30.839844 -35.125 30.839844 -37.78125 C 30.839844 -40.375 29.03125 -41.824219 25.710938 -41.824219 L 9.65625 -41.824219 C 6.335938 -41.824219 4.527344 -40.015625 4.585938 -36.695312 C 4.585938 -31.445312 4.648438 -26.191406 4.648438 -20.941406 C 4.648438 -15.691406 4.585938 -10.441406 4.585938 -5.128906 C 4.527344 -1.8125 6.335938 0 9.65625 0 L 26.3125 0 C 29.632812 0 31.445312 -1.449219 31.445312 -4.105469 C 31.445312 -6.699219 29.632812 -8.148438 26.3125 -8.148438 C 22.933594 -8.085938 19.375 -8.085938 15.8125 -8.027344 Z M 15.8125 -8.027344 "/></g></g></g><g clip-path="url(#322a6f4ef2)"><path fill="#1a3038" d="M 47.230469 220.871094 L 35.269531 220.871094 C 32.246094 220.871094 29.503906 219.101562 28.253906 216.351562 L 0 154.140625 L 11.960938 154.140625 C 14.984375 154.140625 17.726562 155.90625 18.976562 158.660156 L 47.230469 220.871094 " fill-opacity="1" fill-rule="nonzero"/></g><g clip-path="url(#0761aad2a5)"><path fill="#7a22ea" d="M 58.164062 207.71875 L 82.5 154.140625 L 70.535156 154.140625 C 67.515625 154.140625 64.773438 155.90625 63.523438 158.660156 L 49.703125 189.089844 L 58.164062 207.71875 " fill-opacity="1" fill-rule="nonzero"/></g><g clip-path="url(#31c1836799)"><path fill="#1a3038" d="M 45.160156 216.351562 L 41.242188 207.71875 L 35.269531 220.871094 L 47.230469 220.871094 C 48.085938 220.871094 48.917969 220.726562 49.703125 220.460938 C 47.71875 219.789062 46.054688 218.324219 45.160156 216.351562 " fill-opacity="1" fill-rule="nonzero"/></g><g clip-path="url(#a081b4bd31)"><path fill="#7a22ea" d="M 58.164062 207.71875 L 66.605469 189.132812 L 52.765625 158.660156 C 51.515625 155.90625 48.773438 154.140625 45.75 154.140625 L 33.789062 154.140625 L 58.160156 207.800781 C 58.164062 207.75 58.164062 207.71875 58.164062 207.71875 " fill-opacity="1" fill-rule="nonzero"/></g></svg>