<svg xmlns="http://www.w3.org/2000/svg" xmlns:xlink="http://www.w3.org/1999/xlink" width="500" zoomAndPan="magnify" viewBox="0 0 375 374.999991" height="500" preserveAspectRatio="xMidYMid meet" version="1.0"><defs><clipPath id="436908fde1"><path d="M 0 71.78125 L 214.6875 71.78125 L 214.6875 374.675781 L 0 374.675781 Z M 0 71.78125 " clip-rule="nonzero"/></clipPath><clipPath id="293a27961a"><path d="M 225.746094 71.78125 L 374.992188 71.78125 L 374.992188 315 L 225.746094 315 Z M 225.746094 71.78125 " clip-rule="nonzero"/></clipPath><clipPath id="2b0de17e57"><path d="M 160.160156 314.84375 L 226 314.84375 L 226 374.675781 L 160.160156 374.675781 Z M 160.160156 314.84375 " clip-rule="nonzero"/></clipPath><clipPath id="9a52cc8546"><path d="M 153 71.71875 L 303 71.71875 L 303 316 L 153 316 Z M 153 71.71875 " clip-rule="nonzero"/></clipPath></defs><g clip-path="url(#436908fde1)"><path fill="#1a3038" d="M 214.683594 374.675781 L 160.3125 374.675781 C 146.578125 374.675781 134.109375 366.65625 128.429688 354.164062 L 0 71.78125 L 54.375 71.78125 C 68.109375 71.78125 80.574219 79.800781 86.253906 92.292969 L 214.683594 374.675781 " fill-opacity="1" fill-rule="nonzero"/></g><g clip-path="url(#293a27961a)"><path fill="#7a22ea" d="M 264.382812 314.988281 L 374.992188 71.78125 L 320.621094 71.78125 C 306.886719 71.78125 294.421875 79.800781 288.738281 92.292969 L 225.917969 230.421875 L 264.382812 314.988281 " fill-opacity="1" fill-rule="nonzero"/></g><g clip-path="url(#2b0de17e57)"><path fill="#1a3038" d="M 205.273438 354.164062 L 187.457031 314.988281 L 160.308594 374.675781 L 214.683594 374.675781 C 218.570312 374.675781 222.359375 374.03125 225.917969 372.828125 C 216.90625 369.773438 209.34375 363.117188 205.273438 354.164062 " fill-opacity="1" fill-rule="nonzero"/></g><g clip-path="url(#9a52cc8546)"><path fill="#7a22ea" d="M 264.382812 314.988281 L 302.753906 230.621094 L 239.839844 92.292969 C 234.160156 79.800781 221.691406 71.78125 207.960938 71.78125 L 153.585938 71.78125 L 264.367188 315.359375 C 264.375 315.117188 264.382812 314.988281 264.382812 314.988281 " fill-opacity="1" fill-rule="nonzero"/></g></svg>